<svg width="38" height="27" viewBox="0 0 38 27" fill="none" xmlns="http://www.w3.org/2000/svg">
<path d="M29.417 16.3333V10.9166H24.0003V8.41665H29.417V2.99998H31.917V8.41665H37.3337V10.9166H31.917V16.3333H29.417ZM14.0003 12.9583C12.167 12.9583 10.667 12.375 9.50033 11.2083C8.33366 10.0416 7.75033 8.54165 7.75033 6.70831C7.75033 4.87498 8.33366 3.37498 9.50033 2.20831C10.667 1.04165 12.167 0.458313 14.0003 0.458313C15.8337 0.458313 17.3337 1.04165 18.5003 2.20831C19.667 3.37498 20.2503 4.87498 20.2503 6.70831C20.2503 8.54165 19.667 10.0416 18.5003 11.2083C17.3337 12.375 15.8337 12.9583 14.0003 12.9583ZM0.666992 26.3333V22.4166C0.666992 21.4444 0.910048 20.5625 1.39616 19.7708C1.88227 18.9791 2.58366 18.3889 3.50033 18C5.58366 17.0833 7.43783 16.4375 9.06283 16.0625C10.6878 15.6875 12.3337 15.5 14.0003 15.5C15.667 15.5 17.3059 15.6875 18.917 16.0625C20.5281 16.4375 22.3753 17.0833 24.4587 18C25.3753 18.4166 26.0837 19.0139 26.5837 19.7916C27.0837 20.5694 27.3337 21.4444 27.3337 22.4166V26.3333H0.666992ZM3.16699 23.8333H24.8337V22.4166C24.8337 21.9722 24.7087 21.5486 24.4587 21.1458C24.2087 20.743 23.8753 20.4444 23.4587 20.25C21.4864 19.3333 19.8198 18.7291 18.4587 18.4375C17.0975 18.1458 15.6114 18 14.0003 18C12.3892 18 10.8962 18.1458 9.52116 18.4375C8.14616 18.7291 6.47255 19.3333 4.50033 20.25C4.08366 20.4444 3.75727 20.743 3.52116 21.1458C3.28505 21.5486 3.16699 21.9722 3.16699 22.4166V23.8333ZM14.0003 10.4583C15.0837 10.4583 15.9795 10.1041 16.6878 9.39581C17.3962 8.68748 17.7503 7.79165 17.7503 6.70831C17.7503 5.62498 17.3962 4.72915 16.6878 4.02081C15.9795 3.31248 15.0837 2.95831 14.0003 2.95831C12.917 2.95831 12.0212 3.31248 11.3128 4.02081C10.6045 4.72915 10.2503 5.62498 10.2503 6.70831C10.2503 7.79165 10.6045 8.68748 11.3128 9.39581C12.0212 10.1041 12.917 10.4583 14.0003 10.4583Z" fill="#383838"/>
</svg>
