<svg width="168" height="158" viewBox="0 0 168 158" fill="none" xmlns="http://www.w3.org/2000/svg">
<g filter="url(#filter0_d_22_136)">
<ellipse cx="84" cy="75" rx="80" ry="75" fill="white"/>
</g>
<g clip-path="url(#clip0_22_136)">
<path d="M65.0156 93.1889C63.902 91.2312 63.0305 89.1184 62.4425 86.8951C61.8697 84.7226 61.5635 82.462 61.5635 80.1552C61.5635 78.3736 61.7448 76.6248 62.086 74.9282C62.4349 73.2018 62.9605 71.5217 63.6399 69.9102C65.727 64.9653 69.2782 60.765 73.7586 57.83C77.6251 55.2993 82.1802 53.7027 87.0811 53.373V48.8712C87.0811 48.8026 87.0841 48.734 87.0902 48.6668H81.9562C81.1138 48.6668 80.4252 47.9924 80.4252 47.1687V43.4996C80.4252 42.6744 81.1138 42 81.9562 42H97.3841C98.2265 42 98.9151 42.6744 98.9151 43.4996V47.1687C98.9151 47.9924 98.2265 48.6668 97.3841 48.6668H92.2516C92.2562 48.734 92.2592 48.8026 92.2592 48.8712V53.5013H92.244C98.5053 54.231 104.118 57.0272 108.351 61.1738C113.312 66.0307 116.38 72.7438 116.38 80.1552C116.38 87.5665 113.312 94.2796 108.351 99.1365C103.392 103.993 96.5386 107 88.9716 107C83.9199 107 79.1775 105.651 75.1007 103.303C70.8869 100.875 67.3937 97.3743 65.0156 93.1889ZM87.0384 75.7385L82.3142 87.7247H76.7826L81.164 76.9128L75.2912 76.9844L74.924 72.7423H87.0384V75.7385ZM94.0873 72.7423L95.7753 76.7456H96.0206L97.7101 72.7423H103.019L99.6174 79.9821L103.019 87.7247H97.5867L95.7509 83.4095H95.53L93.7202 87.7247H88.5314L91.8601 80.1253L88.5314 72.7423H94.0873ZM113.589 61.611C114.652 59.1251 114.526 56.5184 113.004 54.7741C111.176 52.6806 107.874 52.4404 104.808 53.9131C108.056 56.0946 111.005 58.6327 113.589 61.611ZM64.3559 61.611C63.2926 59.1251 63.4175 56.5184 64.9409 54.7741C66.7675 52.6806 70.0704 52.4404 73.1355 53.9131C69.8875 56.0946 66.9382 58.6327 64.3559 61.611ZM66.6883 85.8178C67.1804 87.6829 67.9132 89.4571 68.8486 91.1029C70.8488 94.6213 73.783 97.5623 77.3189 99.5991C80.7268 101.563 84.7106 102.689 88.9716 102.689C95.3259 102.689 101.078 100.168 105.242 96.0896C109.404 92.0131 111.98 86.3788 111.98 80.1552C111.98 73.9315 109.404 68.2972 105.242 64.2193C101.078 60.1428 95.3259 57.6196 88.9716 57.6196C84.2383 57.6196 79.8447 59.0132 76.1991 61.3991C72.4302 63.8671 69.4457 67.396 67.6953 71.5426C67.1347 72.8721 66.6959 74.2807 66.4004 75.7534C66.1155 77.1694 65.9647 78.6421 65.9647 80.1552C65.9647 82.1307 66.2161 84.0287 66.6883 85.8178Z" fill="black"/>
<path d="M46.4139 70.1295C45.1982 70.1295 44.2126 69.1641 44.2126 67.9749C44.2126 66.7842 45.1982 65.8188 46.4139 65.8188H56.1548C57.3705 65.8188 58.3562 66.7842 58.3562 67.9749C58.3562 69.1641 57.3705 70.1295 56.1548 70.1295H46.4139ZM46.5236 95.1495C45.3095 95.1495 44.3238 94.1841 44.3238 92.9934C44.3238 91.8042 45.3095 90.8373 46.5236 90.8373H56.362C57.5762 90.8373 58.5634 91.8042 58.5634 92.9934C58.5634 94.1841 57.5762 95.1495 56.362 95.1495H46.5236ZM40.2014 82.4754C38.9857 82.4754 38 81.51 38 80.3193C38 79.13 38.9857 78.1646 40.2014 78.1646H53.7782C54.9939 78.1646 55.9796 79.13 55.9796 80.3193C55.9796 81.51 54.9939 82.4754 53.7782 82.4754H40.2014Z" fill="#FE0000"/>
</g>
<defs>
<filter id="filter0_d_22_136" x="0" y="0" width="168" height="158" filterUnits="userSpaceOnUse" color-interpolation-filters="sRGB">
<feFlood flood-opacity="0" result="BackgroundImageFix"/>
<feColorMatrix in="SourceAlpha" type="matrix" values="0 0 0 0 0 0 0 0 0 0 0 0 0 0 0 0 0 0 127 0" result="hardAlpha"/>
<feOffset dy="4"/>
<feGaussianBlur stdDeviation="2"/>
<feComposite in2="hardAlpha" operator="out"/>
<feColorMatrix type="matrix" values="0 0 0 0 0 0 0 0 0 0 0 0 0 0 0 0 0 0 0.1 0"/>
<feBlend mode="normal" in2="BackgroundImageFix" result="effect1_dropShadow_22_136"/>
<feBlend mode="normal" in="SourceGraphic" in2="effect1_dropShadow_22_136" result="shape"/>
</filter>
<clipPath id="clip0_22_136">
<rect width="78" height="65" fill="white" transform="translate(38 42)"/>
</clipPath>
</defs>
</svg>
