<svg width="28" height="28" viewBox="0 0 28 28" fill="none" xmlns="http://www.w3.org/2000/svg">
<path d="M6.00033 16.6667H22.0003V14.6667H6.00033V16.6667ZM6.00033 12.3334H22.0003V10.3334H6.00033V12.3334ZM6.00033 8.00002H22.0003V6.00002H6.00033V8.00002ZM27.3337 27.3334L22.0003 22H2.66699C2.15588 22 1.69477 21.7945 1.28366 21.3834C0.872548 20.9722 0.666992 20.5111 0.666992 20V2.66669C0.666992 2.15558 0.872548 1.69446 1.28366 1.28335C1.69477 0.872243 2.15588 0.666687 2.66699 0.666687H25.3337C25.867 0.666687 26.3337 0.872243 26.7337 1.28335C27.1337 1.69446 27.3337 2.15558 27.3337 2.66669V27.3334ZM2.66699 2.66669V20H22.8337L25.3337 22.5V2.66669H2.66699ZM2.66699 2.66669V22.5V2.66669Z" fill="#383838"/>
</svg>
