<svg width="29" height="27" viewBox="0 0 29 27" fill="none" xmlns="http://www.w3.org/2000/svg">
<path d="M7.06621 0H21.8662V17.0667L12.5995 26.6667L11.2995 25.6333C11.1662 25.5222 11.0662 25.3667 10.9995 25.1667C10.9329 24.9667 10.8995 24.7222 10.8995 24.4333V24.1L12.3995 17.0667H2.43288C1.89954 17.0667 1.43288 16.8667 1.03288 16.4667C0.632878 16.0667 0.432878 15.6 0.432878 15.0667V12.3333C0.432878 12.1778 0.416211 12.0167 0.382878 11.85C0.349544 11.6833 0.366211 11.5222 0.432878 11.3667L4.63288 1.7C4.83288 1.23333 5.16066 0.833333 5.61621 0.5C6.07177 0.166667 6.5551 0 7.06621 0ZM19.8662 2H6.63288L2.43288 11.9667V15.0667H14.8662L13.0995 23.3667L19.8662 16.2333V2ZM19.8662 16.2333V2V16.2333ZM21.8662 17.0667V15.0667H26.2995V2H21.8662V0H28.2995V17.0667H21.8662Z" fill="#383838"/>
</svg>
