<svg width="168" height="158" viewBox="0 0 168 158" fill="none" xmlns="http://www.w3.org/2000/svg">
<g filter="url(#filter0_d_22_135)">
<ellipse cx="84" cy="75" rx="80" ry="75" fill="white"/>
</g>
<path fill-rule="evenodd" clip-rule="evenodd" d="M99.3852 72.6925H108.642V70.9589C108.112 69.062 107.27 67.7757 106.177 66.9925C105.088 66.212 103.672 65.8775 102.011 65.8894L63.1306 65.8974C62.1967 65.8974 61.4398 65.1647 61.4398 64.2594C61.4398 63.3554 62.1967 62.6226 63.1306 62.6226L68.5473 62.624C67.9699 61.7532 67.4831 60.8226 67.095 59.843C66.8797 59.2895 66.6932 58.7293 66.5397 58.1545H60.1507C58.5669 58.1545 57.1243 58.7837 56.078 59.7965C55.033 60.808 54.383 62.2045 54.383 63.739V98.1407C54.383 99.6726 55.0344 101.069 56.0807 102.081C57.1229 103.097 58.5669 103.725 60.1507 103.725H102.872C104.455 103.725 105.898 103.095 106.945 102.083C107.99 101.069 108.642 99.6712 108.642 98.1407V93.2332H99.3852C96.5261 93.2332 93.9274 92.1009 92.0487 90.281L91.8718 90.0952C90.0946 88.2845 88.9989 85.846 88.9989 83.1792V82.7465C88.9989 79.9921 90.1673 77.4806 92.0487 75.6554L92.0666 75.6381C93.9521 73.8208 96.5425 72.6925 99.3852 72.6925ZM112.025 72.7855C113 72.9739 113.873 73.4412 114.551 74.097C115.443 74.9611 116 76.1585 116 77.4766V88.2447C116 89.608 115.42 90.8544 114.482 91.7637C113.808 92.4234 112.957 92.8866 112.025 93.1005V98.1407C112.025 100.569 110.991 102.783 109.333 104.388L109.326 104.394C107.668 105.999 105.381 107 102.872 107H60.1507C57.644 107 55.3539 106 53.6919 104.393C52.0312 102.792 51 100.578 51 98.1407V63.739C51 61.3005 52.0299 59.085 53.6864 57.4802C55.3429 55.8766 57.6316 54.8797 60.1507 54.8797H66.0583C66.0515 54.7045 66.0487 54.528 66.0487 54.3501C66.0487 50.1156 67.8259 46.2753 70.7112 43.4771C76.8889 37.5143 86.9872 37.501 93.1622 43.4771L93.3145 43.6377C96.0996 46.412 97.8151 50.1912 97.8151 54.3501C97.8151 54.528 97.811 54.7045 97.8055 54.8797H102.872C105.383 54.8797 107.671 55.8793 109.33 57.4855C110.992 59.0877 112.025 61.3058 112.025 63.739V72.7855ZM95.3152 62.6266H101.966C104.353 62.6054 106.457 63.131 108.186 64.3722C108.341 64.4837 108.493 64.6005 108.642 64.7226V63.739C108.642 62.2098 107.99 60.812 106.943 59.7979C105.902 58.7824 104.46 58.1545 102.872 58.1545H97.3228C97.1719 58.7306 96.9854 59.2948 96.7688 59.843C96.3821 60.8253 95.8939 61.7545 95.3152 62.6266ZM79.3436 47.5882C79.3381 46.9497 79.2764 46.4917 80.0964 46.5036L83.4506 46.5342C84.305 46.5302 84.5326 46.793 84.523 47.5682V50.6426H87.6784C88.338 50.6386 88.8097 50.5789 88.7974 51.3713L88.7658 54.6182C88.7699 55.4465 88.4998 55.6669 87.6976 55.6576H84.523V58.7293C84.5326 59.5058 84.305 59.7687 83.4506 59.7634L80.0964 59.7939C79.2764 59.8058 79.3381 59.3492 79.3436 58.7107V55.6576H76.1676C75.3654 55.6669 75.0939 55.4452 75.0994 54.6182L75.0678 51.3713C75.0541 50.5789 75.5272 50.6386 76.1868 50.6426H79.3436V47.5882ZM81.9326 41.5815C89.217 41.5815 95.1218 47.2974 95.1218 54.3501C95.1218 57.6288 93.8438 60.6195 91.7443 62.8802H72.1181C70.0187 60.6195 68.742 57.6288 68.742 54.3501C68.742 47.2974 74.6468 41.5815 81.9326 41.5815ZM100.242 78.8571C101.357 78.8571 102.369 79.2965 103.101 80.0067C103.839 80.7208 104.293 81.7005 104.293 82.7797C104.293 83.8576 103.839 84.8372 103.107 85.5474C102.369 86.2615 101.357 86.7009 100.242 86.7009C99.1288 86.7009 98.1181 86.2615 97.3831 85.5527L97.3749 85.5447C96.6426 84.8332 96.1915 83.8549 96.1915 82.7797C96.1915 81.7018 96.6454 80.7222 97.3776 80.012L97.3859 80.004C98.1195 79.2965 99.1302 78.8571 100.242 78.8571Z" fill="black"/>
<defs>
<filter id="filter0_d_22_135" x="0" y="0" width="168" height="158" filterUnits="userSpaceOnUse" color-interpolation-filters="sRGB">
<feFlood flood-opacity="0" result="BackgroundImageFix"/>
<feColorMatrix in="SourceAlpha" type="matrix" values="0 0 0 0 0 0 0 0 0 0 0 0 0 0 0 0 0 0 127 0" result="hardAlpha"/>
<feOffset dy="4"/>
<feGaussianBlur stdDeviation="2"/>
<feComposite in2="hardAlpha" operator="out"/>
<feColorMatrix type="matrix" values="0 0 0 0 0 0 0 0 0 0 0 0 0 0 0 0 0 0 0.1 0"/>
<feBlend mode="normal" in2="BackgroundImageFix" result="effect1_dropShadow_22_135"/>
<feBlend mode="normal" in="SourceGraphic" in2="effect1_dropShadow_22_135" result="shape"/>
</filter>
</defs>
</svg>
