<svg width="32" height="32" viewBox="0 0 32 32" fill="none" xmlns="http://www.w3.org/2000/svg">
<path d="M0.725133 0H31.2712C31.6733 0 31.9991 0.373684 31.9991 0.834889C31.9991 1.08879 31.9004 1.31611 31.7444 1.46935L19.5517 15.385V27.327C19.5517 27.6577 19.3842 27.9432 19.1413 28.0786L13.3897 31.8877C13.0426 32.118 12.5983 31.9821 12.397 31.5842C12.3306 31.4525 12.2991 31.3088 12.2994 31.1666H12.2978V15.3823L0.210289 1.42215C-0.0725232 1.09596 -0.0712211 0.56874 0.213154 0.244642C0.354821 0.0830408 0.539977 0.00238966 0.725133 0.00238966V0ZM29.5103 1.67008H2.47123L13.502 14.4097C13.6561 14.5626 13.7535 14.789 13.7535 15.0411V29.7223L18.0957 26.8473V15.0411H18.0978C18.0978 14.8273 18.1691 14.6134 18.3119 14.4506L29.5103 1.67008Z" fill="white"/>
</svg>
