<svg width="29" height="27" viewBox="0 0 29 27" fill="none" xmlns="http://www.w3.org/2000/svg">
<path d="M21.8671 27H7.06712V9.93331L16.3338 0.333313L17.6338 1.36665C17.7671 1.47776 17.8671 1.63331 17.9338 1.83331C18.0005 2.03331 18.0338 2.27776 18.0338 2.56665V2.89998L16.5338 9.93331H26.5005C27.0338 9.93331 27.5005 10.1333 27.9005 10.5333C28.3005 10.9333 28.5005 11.4 28.5005 11.9333V14.6666C28.5005 14.8222 28.5171 14.9833 28.5505 15.15C28.5838 15.3166 28.5671 15.4778 28.5005 15.6333L24.3005 25.3C24.1005 25.7666 23.7727 26.1666 23.3171 26.5C22.8616 26.8333 22.3782 27 21.8671 27ZM9.06712 25H22.3005L26.5005 15.0333V11.9333H14.0671L15.8338 3.63331L9.06712 10.7666V25ZM9.06712 10.7666V25V10.7666ZM7.06712 9.93331V11.9333H2.63379V25H7.06712V27H0.633789V9.93331H7.06712Z" fill="#383838"/>
</svg>
