<svg width="40" height="40" viewBox="0 0 40 40" fill="none" xmlns="http://www.w3.org/2000/svg">
<path d="M18.2411 0.109238C17.3811 0.434891 2.42348 10.0542 1.5896 10.7806C-0.0260332 12.2586 2.54479e-05 12.0582 2.54479e-05 24.6084C2.54479e-05 35.3549 0.0260841 36.0814 0.495139 36.9581C1.09449 38.0854 2.18895 39.1124 3.25735 39.5633C4.27364 39.9892 33.329 40.1896 35.6222 39.7637C37.342 39.4631 38.4886 38.7868 39.3746 37.5593L40 36.6575V24.6084V12.5592L39.3485 11.6323C38.8795 10.981 36.2736 9.17742 30.3844 5.39483L22.0717 0.0841866L20.3518 0.00903702C19.4137 -0.0160141 18.4495 0.00903702 18.2411 0.109238ZM21.4463 2.21346C21.759 2.38881 25.4593 4.71848 29.6547 7.39885C34.7622 10.6804 37.4202 12.5341 37.6808 12.9851C37.9674 13.5612 38.0456 15.6654 38.0456 24.8338V35.9811L37.1596 36.8579L36.2997 37.7597H20.2215C2.55377 37.7597 3.30947 37.8349 2.44954 36.2317C1.95442 35.2797 1.9023 14.1374 2.39742 13.0602C2.63195 12.5842 5.15963 10.8057 10.8925 7.14835C19.4658 1.66235 19.9088 1.46195 21.4463 2.21346Z" fill="black"/>
<path d="M20.9772 12.3838C19.6222 13.0601 19.0749 13.7365 18.215 15.6904C16.3648 19.949 15.2443 21.4269 12.4821 23.2055L10.9446 24.2075L12.3518 24.5832C16.9121 25.8608 23.2964 25.1845 25.6938 23.1804C27.2834 21.8277 27.9609 20.4249 28.0912 18.1453C28.1954 16.467 28.3257 16.0411 28.7687 15.6654L29.316 15.2395L28.7427 15.2145C28.43 15.2145 28.0391 15.0642 27.9088 14.8888C26.5798 13.3106 25.8762 12.6343 25.2508 12.3086C24.2867 11.8327 21.9674 11.8828 20.9772 12.3838Z" fill="black"/>
</svg>
