<svg width="24" height="23" viewBox="0 0 24 23" fill="none" xmlns="http://www.w3.org/2000/svg">
<path d="M22.5333 22.3448L13.7667 14.4C13.1 14.9236 12.3222 15.3314 11.4333 15.6234C10.5444 15.9154 9.6 16.0615 8.6 16.0615C6.2 16.0615 4.16667 15.3062 2.5 13.7958C0.833333 12.2854 0 10.4628 0 8.32812C0 6.1934 0.833333 4.37083 2.5 2.86041C4.16667 1.35 6.18889 0.594788 8.56667 0.594788C10.9222 0.594788 12.9278 1.35 14.5833 2.86041C16.2389 4.37083 17.0667 6.1934 17.0667 8.32812C17.0667 9.19409 16.9111 10.0299 16.6 10.8354C16.2889 11.641 15.8222 12.3962 15.2 13.101L24 21.0156L22.5333 22.3448ZM8.56667 14.249C10.3667 14.249 11.9 13.67 13.1667 12.512C14.4333 11.354 15.0667 9.95937 15.0667 8.32812C15.0667 6.69687 14.4333 5.30225 13.1667 4.14427C11.9 2.98628 10.3667 2.40729 8.56667 2.40729C6.74444 2.40729 5.19444 2.98628 3.91667 4.14427C2.63889 5.30225 2 6.69687 2 8.32812C2 9.95937 2.63889 11.354 3.91667 12.512C5.19444 13.67 6.74444 14.249 8.56667 14.249Z" fill="#817E7E"/>
</svg>
