<svg width="32" height="6" viewBox="0 0 32 6" fill="none" xmlns="http://www.w3.org/2000/svg">
<path d="M2.4 5.39997C1.73333 5.39997 1.16667 5.16664 0.7 4.69998C0.233333 4.23331 0 3.66664 0 2.99998C0 2.33331 0.233333 1.76664 0.7 1.29997C1.16667 0.833308 1.73333 0.599976 2.4 0.599976C3.06667 0.599976 3.63333 0.833308 4.1 1.29997C4.56667 1.76664 4.8 2.33331 4.8 2.99998C4.8 3.66664 4.56667 4.23331 4.1 4.69998C3.63333 5.16664 3.06667 5.39997 2.4 5.39997ZM16 5.39997C15.3333 5.39997 14.7667 5.16664 14.3 4.69998C13.8333 4.23331 13.6 3.66664 13.6 2.99998C13.6 2.33331 13.8333 1.76664 14.3 1.29997C14.7667 0.833308 15.3333 0.599976 16 0.599976C16.6667 0.599976 17.2333 0.833308 17.7 1.29997C18.1667 1.76664 18.4 2.33331 18.4 2.99998C18.4 3.66664 18.1667 4.23331 17.7 4.69998C17.2333 5.16664 16.6667 5.39997 16 5.39997ZM29.6 5.39997C28.9333 5.39997 28.3667 5.16664 27.9 4.69998C27.4333 4.23331 27.2 3.66664 27.2 2.99998C27.2 2.33331 27.4333 1.76664 27.9 1.29997C28.3667 0.833308 28.9333 0.599976 29.6 0.599976C30.2667 0.599976 30.8333 0.833308 31.3 1.29997C31.7667 1.76664 32 2.33331 32 2.99998C32 3.66664 31.7667 4.23331 31.3 4.69998C30.8333 5.16664 30.2667 5.39997 29.6 5.39997Z" fill="#383838"/>
</svg>
