<svg width="168" height="158" viewBox="0 0 168 158" fill="none" xmlns="http://www.w3.org/2000/svg">
<g filter="url(#filter0_d_22_137)">
<ellipse cx="84" cy="75" rx="80" ry="75" fill="white"/>
</g>
<g clip-path="url(#clip0_22_137)">
<path d="M98.0387 49.3067C98.1671 49.3067 98.2887 49.3271 98.4035 49.3611C98.9506 49.504 99.3559 50.0074 99.3559 50.6061V66.7438L113.155 52.8444C113.622 52.375 114.223 52.1505 114.831 52.1505C115.432 52.1505 116.04 52.375 116.506 52.8444L121.268 57.6408C121.491 57.8654 121.545 58.2463 121.369 58.5457C120.815 59.4301 120.612 60.4779 120.727 61.4848C120.849 62.4577 121.281 63.4169 122.038 64.1789C122.781 64.9409 123.726 65.3763 124.712 65.4988C125.699 65.6212 126.712 65.4103 127.597 64.8933C127.887 64.7028 128.286 64.7164 128.542 64.9817L133.304 69.7781C133.77 70.2476 133.993 70.8531 133.993 71.4654C133.993 72.0709 133.77 72.6832 133.304 73.1526L99.3559 107.347V109.721C99.3559 110.429 98.7817 111.007 98.0793 111.007H54.661C53.6545 111.007 52.7427 110.592 52.0807 109.925C51.412 109.252 51 108.326 51 107.313V47.4901C51 47.2792 51.0473 47.0819 51.1418 46.9051C51.3242 46.2315 51.6755 45.6328 52.1483 45.1566C52.8575 44.4422 53.8369 44 54.9109 44H98.0387C98.7412 44 99.3153 44.5783 99.3153 45.2858C99.3153 45.9934 98.7412 46.5717 98.0387 46.5717H54.9109C54.5394 46.5717 54.2017 46.7282 53.9517 46.9731C53.7086 47.2248 53.5532 47.565 53.5532 47.9392C53.5532 48.3134 53.7086 48.6535 53.9517 48.9053C54.2017 49.157 54.5394 49.3067 54.9109 49.3067H98.0387ZM99.3559 68.8665V76.391C99.5382 76.4251 99.7476 76.4727 99.9908 76.5339L101.166 75.3501L102.247 76.4387L101.747 76.9421L103.037 77.2483L104.354 75.9216L105.442 77.017L104.8 77.6633L106.441 78.0443L109.204 75.2617C109.589 74.8739 110.332 74.9759 110.845 75.493C111.359 76.0101 111.467 76.7584 111.075 77.1462L108.312 79.9288L108.691 81.5684L109.326 80.9289L110.413 82.0243L109.103 83.3441L109.4 84.6436L109.893 84.1469L110.98 85.2423L109.812 86.4193L109.819 86.4465C110.379 88.9229 109.879 88.1473 108.015 90.0251L105.313 82.9631L102.639 85.6573C102.821 86.9635 102.902 88.0113 101.882 89.0386L100.741 87.916C100.653 87.3649 100.612 86.9703 100.565 86.6846C100.396 86.603 100.227 86.4873 100.079 86.3444C99.9503 86.2152 99.8422 86.0655 99.7679 85.9158C99.6531 85.9022 99.5112 85.8886 99.3559 85.8682V97.4408L103.24 101.353L125.3 79.126L107.238 60.9269L99.3559 68.8665ZM99.3559 79.4662V83.5754C99.7949 83.5618 100.254 83.6435 100.774 83.7455L103.442 81.0582L99.3559 79.4662ZM99.3559 99.4954V105.258L102.22 102.373L99.3559 99.4954ZM126.327 78.0987L108.258 59.8996L114.209 53.9058C114.385 53.7289 114.608 53.6472 114.851 53.6472C115.074 53.6472 115.317 53.7357 115.493 53.9058L119.856 58.3008C119.356 59.3621 119.167 60.5255 119.302 61.6753C119.802 65.8662 124.219 68.2133 127.928 66.4377L132.291 70.8327C132.467 71.0095 132.548 71.2341 132.548 71.479C132.548 71.7035 132.46 71.9484 132.291 72.1253L132.271 72.1049L126.327 78.0987ZM86.0832 79.2281C86.1237 79.2281 86.1642 79.2281 86.198 79.2349C86.4547 78.7858 86.6843 78.3096 86.9005 77.813C86.9072 77.8062 86.9072 77.7993 86.914 77.7857C87.2314 77.0306 87.4746 76.2414 87.63 75.425C87.7515 74.7922 87.8394 74.1527 87.8596 73.486H84.0703C84.0028 75.425 83.4286 77.3367 82.3614 79.2145H86.0764V79.2281H86.0832ZM85.4212 80.4459H81.6117C80.4566 82.1399 78.8896 83.8 76.9375 85.4532C77.2415 85.4124 77.5522 85.3647 77.8494 85.3035C78.6667 85.1402 79.457 84.8953 80.2135 84.5619C80.9835 84.2286 81.6995 83.8408 82.3749 83.3849C83.0436 82.9359 83.6583 82.4257 84.2257 81.8542C84.6647 81.412 85.07 80.9493 85.4347 80.4459H85.4212ZM73.6886 85.4464C71.7365 83.8 70.1762 82.1331 69.0144 80.4391H65.2048C65.5696 80.9357 65.9749 81.4052 66.4139 81.8474C66.988 82.4189 67.5959 82.9291 68.2646 83.3781C68.9266 83.8272 69.6426 84.2218 70.4261 84.5551C70.4329 84.5619 70.4396 84.5619 70.4531 84.5687C71.2029 84.8885 71.9864 85.1334 72.797 85.2967C73.0942 85.3579 73.3981 85.4056 73.7088 85.4464H73.6886ZM64.4078 79.2281H68.2444C67.1772 77.3435 66.5963 75.4318 66.5355 73.4996H62.7462C62.7799 74.1663 62.8542 74.8058 62.9758 75.4386C63.1379 76.2618 63.3811 77.0578 63.7121 77.8198C63.9215 78.3096 64.1511 78.779 64.4078 79.2281ZM62.7462 72.2818H66.5557C66.6976 70.3836 67.3258 68.4719 68.4403 66.5533H64.401C64.1444 67.0023 63.9147 67.4718 63.7053 67.9616C63.6986 67.9684 63.6986 67.9752 63.6918 67.9888C63.3743 68.744 63.1312 69.5332 62.9758 70.3496C62.8542 70.9687 62.7732 71.615 62.7462 72.2818ZM65.1981 65.3287H69.2238C70.3721 63.6619 71.8851 61.9882 73.7696 60.3078C73.4319 60.3486 73.1009 60.3962 72.7767 60.4643C71.9594 60.6275 71.1691 60.8725 70.4126 61.2058C69.6426 61.5392 68.9266 61.9338 68.2511 62.3828C67.5824 62.8318 66.9678 63.3421 66.4004 63.9136C65.9613 64.3558 65.5561 64.8184 65.1913 65.3219L65.1981 65.3287ZM76.8497 60.3078C78.741 61.9882 80.254 63.6619 81.3955 65.3287H85.4212C85.0565 64.832 84.6512 64.3626 84.2122 63.9204C83.638 63.3489 83.0301 62.8386 82.3614 62.3896C81.6995 61.9406 80.9835 61.546 80.2 61.2126C80.1932 61.2058 80.1864 61.2058 80.1729 61.199C79.4232 60.8793 78.6397 60.6343 77.8291 60.4711C77.4981 60.403 77.1672 60.3554 76.8362 60.3146V60.3078H76.8497ZM86.2115 66.5465H82.1723C83.2868 68.4719 83.915 70.3768 84.0568 72.275H87.8664C87.8326 71.6082 87.7583 70.9687 87.6367 70.336C87.4746 69.5128 87.2314 68.7168 86.9005 67.9548C86.6978 67.465 86.4682 66.9955 86.2115 66.5465ZM72.5403 59.2737C73.4319 59.09 74.3573 59.0015 75.3097 59.0015C76.262 59.0015 77.1807 59.09 78.079 59.2737C78.9639 59.4505 79.8149 59.7159 80.6525 60.0765C80.6593 60.0765 80.6795 60.0833 80.6863 60.0901C81.5103 60.4506 82.3006 60.8793 83.0369 61.3759C83.7731 61.8658 84.4486 62.4372 85.07 63.0564C85.6982 63.6823 86.252 64.3626 86.7384 65.1042C87.2314 65.8458 87.657 66.6349 88.015 67.4718C88.3797 68.3222 88.6432 69.193 88.8255 70.0979C89.0079 70.9959 89.0957 71.928 89.0957 72.8873C89.0957 73.8466 89.0079 74.7718 88.8255 75.6767C88.6499 76.5679 88.3865 77.4252 88.0285 78.2688C88.0285 78.2756 88.0217 78.296 88.015 78.3028C87.657 79.1464 87.2314 79.9288 86.7384 80.6704C86.252 81.412 85.6847 82.0923 85.07 82.7182C84.4486 83.3509 83.7731 83.9088 83.0369 84.3987C82.3006 84.8953 81.5171 85.3239 80.6863 85.6845C79.842 86.0519 78.9774 86.3172 78.079 86.5009C77.1874 86.6846 76.262 86.773 75.3097 86.773C74.3573 86.773 73.4386 86.6846 72.5403 86.5009C71.6554 86.324 70.8044 86.0587 69.9668 85.6981C69.96 85.6981 69.9398 85.6913 69.933 85.6845C69.109 85.3239 68.3187 84.8953 67.5824 84.3987C66.8462 83.9088 66.1707 83.3373 65.5493 82.7182C64.9211 82.0923 64.3673 81.412 63.8809 80.6704C63.3879 79.9288 62.9623 79.1396 62.6043 78.3028C62.2396 77.4524 61.9762 76.5815 61.7938 75.6767C61.6114 74.7786 61.5236 73.8466 61.5236 72.8873C61.5236 71.928 61.6114 71.0027 61.7938 70.0979C61.9694 69.2066 62.2328 68.3494 62.5908 67.5058C62.5908 67.499 62.5976 67.4786 62.6043 67.4718C62.9623 66.6281 63.3879 65.8458 63.8809 65.1042C64.3673 64.3626 64.9279 63.6823 65.5493 63.0564C66.1707 62.4236 66.8462 61.8658 67.5824 61.3759C68.3187 60.8793 69.1022 60.4506 69.933 60.0901C70.7773 59.7227 71.6487 59.4574 72.5403 59.2737ZM75.9108 61.097V65.3287H79.9163C78.8626 63.934 77.5319 62.5257 75.9108 61.097ZM75.9108 66.5465V72.275H82.8477C82.6924 70.3904 81.9967 68.4855 80.7538 66.5465H75.9108ZM75.9108 73.4928V79.2213H80.9632C82.1655 77.3231 82.8005 75.4113 82.8748 73.4928H75.9108ZM75.9108 80.4459V84.7252C77.6197 83.3101 79.0314 81.8746 80.1189 80.4459H75.9108ZM74.7085 84.7252V80.4459H70.5004C71.5811 81.8746 72.9861 83.3101 74.7085 84.7252ZM74.7085 79.2281V73.4996H67.7445C67.8188 75.425 68.4605 77.3299 69.6561 79.2281H74.7085ZM74.7085 72.2818V66.5533H69.8587C68.6159 68.4923 67.9202 70.404 67.7648 72.2818H74.7085ZM74.7085 65.3287V61.097C73.0874 62.5189 71.7568 63.9272 70.703 65.3287H74.7085ZM66.2585 102.251C65.5561 102.251 64.9819 101.673 64.9819 100.965C64.9819 100.257 65.5561 99.6791 66.2585 99.6791H84.0568C84.7593 99.6791 85.3334 100.257 85.3334 100.965C85.3334 101.673 84.7593 102.251 84.0568 102.251H66.2585ZM61.0643 95.5154C60.3618 95.5154 59.7877 94.9371 59.7877 94.2296C59.7877 93.522 60.3618 92.9437 61.0643 92.9437H89.2578C89.9603 92.9437 90.5344 93.522 90.5344 94.2296C90.5344 94.9371 89.9603 95.5154 89.2578 95.5154H61.0643ZM96.8027 51.8784H54.9109C54.4313 51.8784 53.972 51.7899 53.5532 51.6334V107.313C53.5532 107.619 53.6816 107.898 53.8774 108.102C54.0801 108.306 54.357 108.428 54.661 108.428H96.8027V51.8784Z" fill="black"/>
</g>
<defs>
<filter id="filter0_d_22_137" x="0" y="0" width="168" height="158" filterUnits="userSpaceOnUse" color-interpolation-filters="sRGB">
<feFlood flood-opacity="0" result="BackgroundImageFix"/>
<feColorMatrix in="SourceAlpha" type="matrix" values="0 0 0 0 0 0 0 0 0 0 0 0 0 0 0 0 0 0 127 0" result="hardAlpha"/>
<feOffset dy="4"/>
<feGaussianBlur stdDeviation="2"/>
<feComposite in2="hardAlpha" operator="out"/>
<feColorMatrix type="matrix" values="0 0 0 0 0 0 0 0 0 0 0 0 0 0 0 0 0 0 0.1 0"/>
<feBlend mode="normal" in2="BackgroundImageFix" result="effect1_dropShadow_22_137"/>
<feBlend mode="normal" in="SourceGraphic" in2="effect1_dropShadow_22_137" result="shape"/>
</filter>
<clipPath id="clip0_22_137">
<rect width="83" height="67" fill="white" transform="translate(50 44)"/>
</clipPath>
</defs>
</svg>
