<svg width="36" height="27" viewBox="0 0 36 27" fill="none" xmlns="http://www.w3.org/2000/svg">
<path d="M26.0003 10.4167V7.91668H35.667V10.4167H26.0003ZM14.0003 12.9583C12.167 12.9583 10.667 12.375 9.50033 11.2083C8.33366 10.0417 7.75033 8.54168 7.75033 6.70834C7.75033 4.87501 8.33366 3.37501 9.50033 2.20834C10.667 1.04168 12.167 0.458344 14.0003 0.458344C15.8337 0.458344 17.3337 1.04168 18.5003 2.20834C19.667 3.37501 20.2503 4.87501 20.2503 6.70834C20.2503 8.54168 19.667 10.0417 18.5003 11.2083C17.3337 12.375 15.8337 12.9583 14.0003 12.9583ZM0.666992 26.3333V22.4167C0.666992 21.4445 0.910048 20.5625 1.39616 19.7708C1.88227 18.9792 2.58366 18.3889 3.50033 18C5.58366 17.0833 7.43783 16.4375 9.06283 16.0625C10.6878 15.6875 12.3337 15.5 14.0003 15.5C15.667 15.5 17.3059 15.6875 18.917 16.0625C20.5281 16.4375 22.3753 17.0833 24.4587 18C25.3753 18.4167 26.0837 19.0139 26.5837 19.7917C27.0837 20.5695 27.3337 21.4445 27.3337 22.4167V26.3333H0.666992ZM3.16699 23.8333H24.8337V22.4167C24.8337 21.9722 24.7087 21.5486 24.4587 21.1458C24.2087 20.7431 23.8753 20.4445 23.4587 20.25C21.4864 19.3333 19.8198 18.7292 18.4587 18.4375C17.0975 18.1458 15.6114 18 14.0003 18C12.3892 18 10.8962 18.1458 9.52116 18.4375C8.14616 18.7292 6.47255 19.3333 4.50033 20.25C4.08366 20.4445 3.75727 20.7431 3.52116 21.1458C3.28505 21.5486 3.16699 21.9722 3.16699 22.4167V23.8333ZM14.0003 10.4583C15.0837 10.4583 15.9795 10.1042 16.6878 9.39584C17.3962 8.68751 17.7503 7.79168 17.7503 6.70834C17.7503 5.62501 17.3962 4.72918 16.6878 4.02084C15.9795 3.31251 15.0837 2.95834 14.0003 2.95834C12.917 2.95834 12.0212 3.31251 11.3128 4.02084C10.6045 4.72918 10.2503 5.62501 10.2503 6.70834C10.2503 7.79168 10.6045 8.68751 11.3128 9.39584C12.0212 10.1042 12.917 10.4583 14.0003 10.4583Z" fill="#383838"/>
</svg>
