<svg width="168" height="158" viewBox="0 0 168 158" fill="none" xmlns="http://www.w3.org/2000/svg">
<g filter="url(#filter0_d_22_138)">
<ellipse cx="84" cy="75" rx="80" ry="75" fill="white"/>
</g>
<g clip-path="url(#clip0_22_138)">
<path fill-rule="evenodd" clip-rule="evenodd" d="M75.4045 52.9747H79.7887C80.1879 52.9747 80.5706 53.1316 80.8529 53.4109C81.1351 53.6902 81.2936 54.069 81.2936 54.464V59.4778H86.36C86.7592 59.4778 87.1419 59.6347 87.4242 59.914C87.7064 60.1933 87.8649 60.5721 87.8649 60.9671V65.3058C87.8649 65.7007 87.7064 66.0795 87.4242 66.3588C87.1419 66.6381 86.7592 66.795 86.36 66.795H81.2786V71.6649C81.2786 72.0599 81.12 72.4387 80.8378 72.718C80.5556 72.9973 80.1728 73.1542 79.7737 73.1542H75.4045C75.0054 73.1542 74.6227 72.9973 74.3404 72.718C74.0582 72.4387 73.8997 72.0599 73.8997 71.6649V66.7652H68.8332C68.4341 66.7652 68.0514 66.6083 67.7691 66.329C67.4869 66.0498 67.3284 65.671 67.3284 65.276V60.9472C67.3284 60.5522 67.4869 60.1734 67.7691 59.8941C68.0514 59.6149 68.4341 59.4579 68.8332 59.4579H73.9147V54.4391C73.9147 54.0442 74.0733 53.6654 74.3555 53.3861C74.6377 53.1068 75.0205 52.9499 75.4196 52.9499L75.4045 52.9747Z" fill="#D8453E"/>
<path fill-rule="evenodd" clip-rule="evenodd" d="M110.93 77.8155C111.722 93.7009 105.793 103.088 95.2891 107C85.1412 103.331 79.1418 94.3562 79.5732 77.5723C84.9054 77.8503 90.1424 76.7085 95.2138 72.8116C99.7285 75.6362 105.452 78.307 110.915 77.8155H110.93ZM65.633 82.6308C65.2498 82.6308 64.8824 82.4802 64.6114 82.212C64.3405 81.9439 64.1883 81.5803 64.1883 81.2011C64.1883 80.8219 64.3405 80.4583 64.6114 80.1902C64.8824 79.922 65.2498 79.7714 65.633 79.7714H73.5235C73.9067 79.7714 74.2742 79.922 74.5451 80.1902C74.816 80.4583 74.9682 80.8219 74.9682 81.2011C74.9682 81.5803 74.816 81.9439 74.5451 82.212C74.2742 82.4802 73.9067 82.6308 73.5235 82.6308H65.633ZM98.1333 54.4391H102.728C103.599 54.4404 104.434 54.7834 105.05 55.3929C105.666 56.0024 106.013 56.8287 106.014 57.6907C106.014 63.1513 108.387 73.0102 103.2 70.8011V57.6807C103.2 57.6202 103.188 57.5602 103.164 57.5046C103.14 57.4491 103.104 57.3991 103.059 57.3581C103.017 57.3133 102.965 57.2774 102.909 57.2527C102.852 57.2279 102.79 57.2148 102.728 57.2141H98.1333V68.2743C97.2103 67.7581 96.2773 67.2021 95.3342 66.6064V49.2317C95.3269 49.1094 95.2743 48.9942 95.1863 48.908C95.0983 48.8219 94.9813 48.771 94.8577 48.7651H60.2856C60.224 48.764 60.1628 48.7763 60.1065 48.8012C60.0501 48.8261 60 48.8629 59.9596 48.909C59.9135 48.9494 59.8766 48.9991 59.8515 49.0548C59.8264 49.1104 59.8137 49.1708 59.8141 49.2317V87.8779C59.8141 87.9381 59.827 87.9976 59.8521 88.0524C59.8772 88.1072 59.9139 88.156 59.9596 88.1956C60.002 88.239 60.0526 88.2736 60.1086 88.2974C60.1645 88.3213 60.2247 88.3339 60.2856 88.3346H75.1639C75.3545 89.2944 75.5702 90.2227 75.811 91.1196H67.6947V96.2922C67.6932 96.3536 67.705 96.4145 67.7292 96.471C67.7534 96.5275 67.7895 96.5783 67.8351 96.6199C67.9235 96.7069 68.0416 96.7583 68.1662 96.7638H77.7673C78.1887 97.7319 78.6502 98.6602 79.1367 99.5488H68.1662C67.2943 99.5474 66.4586 99.2038 65.8426 98.5932C65.2265 97.9826 64.8805 97.1551 64.8805 96.2922V91.1344H60.2856C59.4138 91.1331 58.5781 90.7895 57.962 90.1789C57.346 89.5683 57 88.7408 57 87.8779V49.2516C57.0013 48.3896 57.3479 47.5633 57.9638 46.9538C58.5797 46.3443 59.4146 46.0013 60.2856 46H94.8376C95.2698 45.9994 95.6978 46.0829 96.0973 46.246C96.4968 46.409 96.8599 46.6484 97.1659 46.9503C97.472 47.2522 97.7149 47.6109 97.8809 48.0057C98.0469 48.4006 98.1326 48.8239 98.1333 49.2516V54.4391ZM106.064 81.6578C106.606 92.4897 102.553 98.8885 95.3994 101.559L95.264 101.51V78.3119L95.3543 78.2474C98.4192 80.1685 102.337 81.9954 106.064 81.6578ZM95.2339 74.7923C100.421 78.0439 105.106 79.5877 109.129 79.2204C109.831 93.2839 104.584 101.589 95.2891 105.034C86.305 101.793 80.9978 93.8449 81.384 78.9871C86.37 79.3671 91.3169 77.8688 95.2339 74.7923Z" fill="#1F1F1F"/>
</g>
<defs>
<filter id="filter0_d_22_138" x="0" y="0" width="168" height="158" filterUnits="userSpaceOnUse" color-interpolation-filters="sRGB">
<feFlood flood-opacity="0" result="BackgroundImageFix"/>
<feColorMatrix in="SourceAlpha" type="matrix" values="0 0 0 0 0 0 0 0 0 0 0 0 0 0 0 0 0 0 127 0" result="hardAlpha"/>
<feOffset dy="4"/>
<feGaussianBlur stdDeviation="2"/>
<feComposite in2="hardAlpha" operator="out"/>
<feColorMatrix type="matrix" values="0 0 0 0 0 0 0 0 0 0 0 0 0 0 0 0 0 0 0.1 0"/>
<feBlend mode="normal" in2="BackgroundImageFix" result="effect1_dropShadow_22_138"/>
<feBlend mode="normal" in="SourceGraphic" in2="effect1_dropShadow_22_138" result="shape"/>
</filter>
<clipPath id="clip0_22_138">
<rect width="54" height="61" fill="white" transform="translate(57 46)"/>
</clipPath>
</defs>
</svg>
