<svg width="23" height="27" viewBox="0 0 23 27" fill="none" xmlns="http://www.w3.org/2000/svg">
<path d="M18.959 26.3483C18.0029 26.3483 17.1841 25.9869 16.5027 25.2641C15.8212 24.5414 15.4805 23.673 15.4805 22.659C15.4805 22.5079 15.4958 22.3299 15.5263 22.125C15.5568 21.92 15.6025 21.7312 15.6636 21.5586L6.41808 15.8628C6.11295 16.2296 5.73662 16.5263 5.28909 16.7528C4.84157 16.9793 4.38387 17.0926 3.916 17.0926C2.95992 17.0926 2.14115 16.7312 1.45969 16.0085C0.778231 15.2857 0.4375 14.4173 0.4375 13.4033C0.4375 12.3677 0.778231 11.4939 1.45969 10.7819C2.14115 10.07 2.95992 9.71398 3.916 9.71398C4.38387 9.71398 4.8314 9.81106 5.25858 10.0052C5.68577 10.1994 6.07227 10.4799 6.41808 10.8467L15.6636 5.2156C15.6025 5.06457 15.5568 4.89197 15.5263 4.6978C15.4958 4.50362 15.4805 4.32023 15.4805 4.14763C15.4805 3.11203 15.8212 2.23825 16.5027 1.52627C17.1841 0.8143 18.0029 0.458313 18.959 0.458313C19.9354 0.458313 20.7593 0.8143 21.4306 1.52627C22.1019 2.23825 22.4375 3.11203 22.4375 4.14763C22.4375 5.16166 22.1019 6.03005 21.4306 6.75281C20.7593 7.47557 19.9354 7.83695 18.959 7.83695C18.4911 7.83695 18.0385 7.75605 17.6012 7.59424C17.1638 7.43242 16.7926 7.16813 16.4874 6.80136L7.24194 12.2382C7.28262 12.4108 7.31822 12.6104 7.34873 12.837C7.37925 13.0635 7.3945 13.2523 7.3945 13.4033C7.3945 13.5543 7.37925 13.7161 7.34873 13.8887C7.31822 14.0613 7.28262 14.2339 7.24194 14.4065L16.4874 19.9729C16.7926 19.6708 17.1486 19.4281 17.5554 19.2447C17.9622 19.0613 18.4301 18.9696 18.959 18.9696C19.9354 18.9696 20.7593 19.3256 21.4306 20.0376C22.1019 20.7496 22.4375 21.6234 22.4375 22.659C22.4375 23.673 22.1019 24.5414 21.4306 25.2641C20.7593 25.9869 19.9354 26.3483 18.959 26.3483ZM18.959 5.89521C19.4269 5.89521 19.8185 5.728 20.1338 5.39359C20.4491 5.05918 20.6067 4.64386 20.6067 4.14763C20.6067 3.65141 20.4491 3.23609 20.1338 2.90168C19.8185 2.56727 19.4269 2.40006 18.959 2.40006C18.4911 2.40006 18.0995 2.56727 17.7842 2.90168C17.4689 3.23609 17.3113 3.65141 17.3113 4.14763C17.3113 4.64386 17.4689 5.05918 17.7842 5.39359C18.0995 5.728 18.4911 5.89521 18.959 5.89521ZM3.916 15.1509C4.38387 15.1509 4.77546 14.9837 5.09076 14.6493C5.40606 14.3148 5.56371 13.8995 5.56371 13.4033C5.56371 12.9071 5.40606 12.4918 5.09076 12.1573C4.77546 11.8229 4.38387 11.6557 3.916 11.6557C3.44813 11.6557 3.05655 11.8229 2.74124 12.1573C2.42594 12.4918 2.26829 12.9071 2.26829 13.4033C2.26829 13.8995 2.42594 14.3148 2.74124 14.6493C3.05655 14.9837 3.44813 15.1509 3.916 15.1509ZM18.959 24.4065C19.4269 24.4065 19.8185 24.2393 20.1338 23.9049C20.4491 23.5705 20.6067 23.1552 20.6067 22.659C20.6067 22.1627 20.4491 21.7474 20.1338 21.413C19.8185 21.0786 19.4269 20.9114 18.959 20.9114C18.4911 20.9114 18.0995 21.0786 17.7842 21.413C17.4689 21.7474 17.3113 22.1627 17.3113 22.659C17.3113 23.1552 17.4689 23.5705 17.7842 23.9049C18.0995 24.2393 18.4911 24.4065 18.959 24.4065Z" fill="#383838"/>
</svg>
