<svg width="24" height="24" viewBox="0 0 24 24" fill="none" xmlns="http://www.w3.org/2000/svg">
<path d="M20.4934 3.5136C18.2301 1.2492 15.2204 0.0012 12.0138 0C5.40627 0 0.0288015 5.3748 0.0264014 11.982C0.0252013 14.094 0.577229 16.1556 1.62608 17.9724L0 24L6.27991 22.5156C8.0308 23.4708 10.0013 23.9736 12.0078 23.9748H12.0126C18.6189 23.9748 23.9964 18.5988 24 11.9928C24.0024 8.79 22.7567 5.7792 20.4934 3.5136ZM17.8785 16.2648C17.6289 16.9644 16.406 17.6388 15.8564 17.688C15.3068 17.7384 14.7919 17.9364 12.2622 16.9392C9.21766 15.7392 7.29516 12.618 7.14636 12.4188C6.99635 12.2184 5.92349 10.7952 5.92349 9.3216C5.92349 7.848 6.69753 7.1232 6.97235 6.8244C7.24716 6.5244 7.57118 6.45 7.77159 6.45C7.9708 6.45 8.17121 6.45 8.34522 6.4572C8.55883 6.4656 8.79524 6.4764 9.01965 6.9744C9.28606 7.5672 9.86809 9.048 9.9425 9.198C10.0169 9.348 10.0673 9.5232 9.9677 9.7224C9.86809 9.9216 9.81769 10.0464 9.66888 10.2216C9.51887 10.3968 9.35447 10.6116 9.22006 10.746C9.07005 10.8948 8.91404 11.058 9.08805 11.3568C9.26326 11.6568 9.86329 12.6372 10.7537 13.4304C11.8986 14.4504 12.8622 14.766 13.1623 14.9172C13.4623 15.0672 13.6363 15.042 13.8115 14.8416C13.9867 14.6424 14.5603 13.968 14.7595 13.668C14.9587 13.368 15.1592 13.4184 15.434 13.518C15.7088 13.6176 17.1813 14.3424 17.4801 14.4924C17.7801 14.6424 17.9793 14.7168 18.0537 14.8416C18.1281 14.9652 18.1281 15.5652 17.8785 16.2648Z" fill="white"/>
</svg>
